<mxfile host="f77fe7a1-0787-455c-802f-5cefd7479723" modified="2020-07-29T11:18:40.441Z" agent="5.0 (Macintosh; Intel Mac OS X 10_15_5) AppleWebKit/537.36 (KHTML, like Gecko) Code/1.47.0 Chrome/78.0.3904.130 Electron/7.3.2 Safari/537.36" etag="cLdz86PTebCh4eO6xqSn" version="13.1.3">
    <diagram id="6hGFLwfOUW9BJ-s0fimq" name="Page-1">
        <mxGraphModel dx="1122" dy="785" grid="1" gridSize="10" guides="1" tooltips="1" connect="1" arrows="1" fold="1" page="1" pageScale="1" pageWidth="827" pageHeight="1169" math="0" shadow="0">
            <root>
                <mxCell id="0"/>
                <mxCell id="1" parent="0"/>
                <mxCell id="4" style="edgeStyle=orthogonalEdgeStyle;rounded=0;orthogonalLoop=1;jettySize=auto;html=1;exitX=0.5;exitY=1;exitDx=0;exitDy=0;" parent="1" source="2" target="3" edge="1">
                    <mxGeometry relative="1" as="geometry"/>
                </mxCell>
                <mxCell id="2" value="&lt;div style=&quot;background-color: rgb(40 , 44 , 52) ; font-family: &amp;#34;monaco&amp;#34; , &amp;#34;menlo&amp;#34; , &amp;#34;monaco&amp;#34; , &amp;#34;courier new&amp;#34; , monospace ; font-weight: normal ; font-size: 13px ; line-height: 20px&quot;&gt;&lt;div style=&quot;color: rgb(171 , 178 , 191)&quot;&gt;&lt;span style=&quot;color: #c678dd&quot;&gt;static&lt;/span&gt;&lt;span style=&quot;color: #abb2bf&quot;&gt; &lt;/span&gt;&lt;span style=&quot;color: #c678dd&quot;&gt;int&lt;/span&gt;&lt;/div&gt;&lt;div style=&quot;color: rgb(171 , 178 , 191)&quot;&gt;&lt;span style=&quot;color: #61afef&quot;&gt;ip_vs_add_dest&lt;/span&gt;&lt;span style=&quot;color: #abb2bf&quot;&gt;(&lt;/span&gt;&lt;span style=&quot;color: #c678dd&quot;&gt;struct&lt;/span&gt;&lt;span style=&quot;color: #e06c75&quot;&gt; &lt;/span&gt;&lt;span style=&quot;color: #e5c07b&quot;&gt;ip_vs_service&lt;/span&gt;&lt;span style=&quot;color: #e06c75&quot;&gt; &lt;/span&gt;&lt;span style=&quot;color: #c678dd&quot;&gt;*&lt;/span&gt;&lt;span style=&quot;color: #e06c75 ; font-style: italic&quot;&gt;svc&lt;/span&gt;&lt;span style=&quot;color: #abb2bf&quot;&gt;,&lt;/span&gt;&lt;span style=&quot;color: #e06c75&quot;&gt; &lt;/span&gt;&lt;span style=&quot;color: #c678dd&quot;&gt;struct&lt;/span&gt;&lt;span style=&quot;color: #e06c75&quot;&gt; &lt;/span&gt;&lt;span style=&quot;color: #e5c07b&quot;&gt;ip_vs_dest_user_kern&lt;/span&gt;&lt;span style=&quot;color: #e06c75&quot;&gt; &lt;/span&gt;&lt;span style=&quot;color: #c678dd&quot;&gt;*&lt;/span&gt;&lt;span style=&quot;color: #e06c75 ; font-style: italic&quot;&gt;udest&lt;/span&gt;&lt;span style=&quot;color: #abb2bf&quot;&gt;)&lt;/span&gt;&lt;/div&gt;&lt;div style=&quot;color: rgb(171 , 178 , 191)&quot;&gt;&lt;span style=&quot;color: #abb2bf&quot;&gt;{&lt;/span&gt;&lt;/div&gt;&lt;div style=&quot;color: rgb(171 , 178 , 191)&quot;&gt;&lt;span style=&quot;color: #abb2bf&quot;&gt;&lt;/span&gt;&lt;span style=&quot;color: #c678dd&quot;&gt;&amp;nbsp; &amp;nbsp; struct&lt;/span&gt;&lt;span style=&quot;color: #abb2bf&quot;&gt; &lt;/span&gt;&lt;span style=&quot;color: #e5c07b&quot;&gt;ip_vs_dest&lt;/span&gt;&lt;span style=&quot;color: #abb2bf&quot;&gt; &lt;/span&gt;&lt;span style=&quot;color: #c678dd&quot;&gt;*&lt;/span&gt;&lt;span style=&quot;color: #e06c75&quot;&gt;dest&lt;/span&gt;&lt;span style=&quot;color: #abb2bf&quot;&gt;;&lt;/span&gt;&lt;/div&gt;&lt;div style=&quot;color: rgb(171 , 178 , 191)&quot;&gt;&lt;span style=&quot;color: #abb2bf&quot;&gt;&lt;/span&gt;&lt;span style=&quot;color: #c678dd&quot;&gt;&amp;nbsp; &amp;nbsp; union&lt;/span&gt;&lt;span style=&quot;color: #abb2bf&quot;&gt; &lt;/span&gt;&lt;span style=&quot;color: #e5c07b&quot;&gt;nf_inet_addr&lt;/span&gt;&lt;span style=&quot;color: #abb2bf&quot;&gt; &lt;/span&gt;&lt;span style=&quot;color: #e06c75&quot;&gt;daddr&lt;/span&gt;&lt;span style=&quot;color: #abb2bf&quot;&gt;;&lt;/span&gt;&lt;/div&gt;&lt;div style=&quot;color: rgb(171 , 178 , 191)&quot;&gt;&lt;span style=&quot;color: #abb2bf&quot;&gt;&lt;/span&gt;&lt;span style=&quot;color: #e5c07b&quot;&gt;&amp;nbsp; &amp;nbsp; __be16&lt;/span&gt;&lt;span style=&quot;color: #abb2bf&quot;&gt; &lt;/span&gt;&lt;span style=&quot;color: #e06c75&quot;&gt;dport&lt;/span&gt;&lt;span style=&quot;color: #abb2bf&quot;&gt; &lt;/span&gt;&lt;span style=&quot;color: #c678dd&quot;&gt;=&lt;/span&gt;&lt;span style=&quot;color: #abb2bf&quot;&gt; &lt;/span&gt;&lt;span style=&quot;color: #e06c75 ; font-style: italic&quot;&gt;udest&lt;/span&gt;&lt;span style=&quot;color: #abb2bf&quot;&gt;-&amp;gt;&lt;/span&gt;&lt;span style=&quot;color: #e06c75&quot;&gt;port&lt;/span&gt;&lt;span style=&quot;color: #abb2bf&quot;&gt;;&lt;/span&gt;&lt;/div&gt;&lt;div style=&quot;color: rgb(171 , 178 , 191)&quot;&gt;&lt;span style=&quot;color: #abb2bf&quot;&gt;&lt;/span&gt;&lt;span style=&quot;color: #c678dd&quot;&gt;&amp;nbsp; &amp;nbsp; int&lt;/span&gt;&lt;span style=&quot;color: #abb2bf&quot;&gt; &lt;/span&gt;&lt;span style=&quot;color: #e06c75&quot;&gt;ret&lt;/span&gt;&lt;span style=&quot;color: #abb2bf&quot;&gt;;&lt;/span&gt;&lt;/div&gt;&lt;div style=&quot;color: rgb(171 , 178 , 191)&quot;&gt;&lt;br&gt;&lt;/div&gt;&lt;div style=&quot;color: rgb(171 , 178 , 191)&quot;&gt;&lt;span style=&quot;color: #abb2bf&quot;&gt;&lt;/span&gt;&lt;span style=&quot;color: #61afef&quot;&gt;&amp;nbsp; &amp;nbsp; ip_vs_addr_copy&lt;/span&gt;&lt;span style=&quot;color: #abb2bf&quot;&gt;(&lt;/span&gt;&lt;span style=&quot;color: #e06c75 ; font-style: italic&quot;&gt;svc&lt;/span&gt;&lt;span style=&quot;color: #abb2bf&quot;&gt;-&amp;gt;&lt;/span&gt;&lt;span style=&quot;color: #e06c75&quot;&gt;af&lt;/span&gt;&lt;span style=&quot;color: #abb2bf&quot;&gt;, &lt;/span&gt;&lt;span style=&quot;color: #c678dd&quot;&gt;&amp;amp;&lt;/span&gt;&lt;span style=&quot;color: #e06c75&quot;&gt;daddr&lt;/span&gt;&lt;span style=&quot;color: #abb2bf&quot;&gt;, &lt;/span&gt;&lt;span style=&quot;color: #c678dd&quot;&gt;&amp;amp;&lt;/span&gt;&lt;span style=&quot;color: #e06c75 ; font-style: italic&quot;&gt;udest&lt;/span&gt;&lt;span style=&quot;color: #abb2bf&quot;&gt;-&amp;gt;&lt;/span&gt;&lt;span style=&quot;color: #e06c75&quot;&gt;addr&lt;/span&gt;&lt;span style=&quot;color: #abb2bf&quot;&gt;);&lt;/span&gt;&lt;/div&gt;&lt;div style=&quot;color: rgb(171 , 178 , 191)&quot;&gt;&lt;br&gt;&lt;/div&gt;&lt;div style=&quot;color: rgb(171 , 178 , 191)&quot;&gt;&lt;span style=&quot;color: rgb(224 , 108 , 117)&quot;&gt;&amp;nbsp; &amp;nbsp; dest&lt;/span&gt; &lt;span style=&quot;color: rgb(198 , 120 , 221)&quot;&gt;=&lt;/span&gt; &lt;span style=&quot;color: rgb(97 , 175 , 239)&quot;&gt;ip_vs_lookup_dest&lt;/span&gt;(&lt;span style=&quot;color: rgb(224 , 108 , 117) ; font-style: italic&quot;&gt;svc&lt;/span&gt;, &lt;span style=&quot;color: rgb(198 , 120 , 221)&quot;&gt;&amp;amp;&lt;/span&gt;&lt;span style=&quot;color: rgb(224 , 108 , 117)&quot;&gt;daddr&lt;/span&gt;, &lt;span style=&quot;color: rgb(224 , 108 , 117)&quot;&gt;dport&lt;/span&gt;);&lt;br&gt;&lt;/div&gt;&lt;div style=&quot;color: rgb(171 , 178 , 191)&quot;&gt;&lt;br&gt;&lt;/div&gt;&lt;div&gt;&lt;font color=&quot;#7f848e&quot;&gt;&lt;i&gt;&amp;nbsp; &amp;nbsp;&amp;nbsp;&lt;/i&gt;&lt;/font&gt;&lt;span style=&quot;color: rgb(224 , 108 , 117)&quot;&gt;dest&lt;/span&gt; &lt;span style=&quot;color: rgb(198 , 120 , 221)&quot;&gt;=&lt;/span&gt; &lt;span style=&quot;color: rgb(97 , 175 , 239)&quot;&gt;ip_vs_trash_get_dest&lt;/span&gt;&lt;font color=&quot;#abb2bf&quot;&gt;(&lt;/font&gt;&lt;span style=&quot;color: rgb(224 , 108 , 117) ; font-style: italic&quot;&gt;svc&lt;/span&gt;&lt;font color=&quot;#abb2bf&quot;&gt;, &lt;/font&gt;&lt;span style=&quot;color: rgb(198 , 120 , 221)&quot;&gt;&amp;amp;&lt;/span&gt;&lt;span style=&quot;color: rgb(224 , 108 , 117)&quot;&gt;daddr&lt;/span&gt;&lt;font color=&quot;#abb2bf&quot;&gt;, &lt;/font&gt;&lt;span style=&quot;color: rgb(224 , 108 , 117)&quot;&gt;dport&lt;/span&gt;&lt;font color=&quot;#abb2bf&quot;&gt;);&lt;/font&gt;&lt;br&gt;&lt;/div&gt;&lt;br&gt;&lt;div style=&quot;color: rgb(171 , 178 , 191)&quot;&gt;&lt;span style=&quot;color: #abb2bf&quot;&gt;&lt;/span&gt;&lt;span style=&quot;color: #c678dd&quot;&gt;&amp;nbsp; &amp;nbsp; if&lt;/span&gt;&lt;span style=&quot;color: #abb2bf&quot;&gt; (&lt;/span&gt;&lt;span style=&quot;color: #e06c75&quot;&gt;dest&lt;/span&gt;&lt;span style=&quot;color: #abb2bf&quot;&gt; &lt;/span&gt;&lt;span style=&quot;color: #c678dd&quot;&gt;!=&lt;/span&gt;&lt;span style=&quot;color: #abb2bf&quot;&gt; &lt;/span&gt;&lt;span style=&quot;color: #61afef&quot;&gt;NULL&lt;/span&gt;&lt;span style=&quot;color: #abb2bf&quot;&gt;) {&lt;/span&gt;&lt;/div&gt;&lt;div style=&quot;color: rgb(171 , 178 , 191)&quot;&gt;&lt;span style=&quot;color: #abb2bf&quot;&gt;&lt;/span&gt;&lt;span style=&quot;color: #61afef&quot;&gt;&amp;nbsp; &amp;nbsp; &amp;nbsp; &amp;nbsp; __ip_vs_update_dest&lt;/span&gt;&lt;span style=&quot;color: #abb2bf&quot;&gt;(&lt;/span&gt;&lt;span style=&quot;color: #e06c75 ; font-style: italic&quot;&gt;svc&lt;/span&gt;&lt;span style=&quot;color: #abb2bf&quot;&gt;, &lt;/span&gt;&lt;span style=&quot;color: #e06c75&quot;&gt;dest&lt;/span&gt;&lt;span style=&quot;color: #abb2bf&quot;&gt;, &lt;/span&gt;&lt;span style=&quot;color: #e06c75 ; font-style: italic&quot;&gt;udest&lt;/span&gt;&lt;span style=&quot;color: #abb2bf&quot;&gt;, &lt;/span&gt;&lt;span style=&quot;color: #d19a66&quot;&gt;1&lt;/span&gt;&lt;span style=&quot;color: #abb2bf&quot;&gt;);&lt;/span&gt;&lt;/div&gt;&lt;div style=&quot;color: rgb(171 , 178 , 191)&quot;&gt;&lt;span style=&quot;color: #abb2bf&quot;&gt;&lt;/span&gt;&lt;span style=&quot;color: #e06c75&quot;&gt;&amp;nbsp; &amp;nbsp; &amp;nbsp; &amp;nbsp; ret&lt;/span&gt;&lt;span style=&quot;color: #abb2bf&quot;&gt; &lt;/span&gt;&lt;span style=&quot;color: #c678dd&quot;&gt;=&lt;/span&gt;&lt;span style=&quot;color: #abb2bf&quot;&gt; &lt;/span&gt;&lt;span style=&quot;color: #d19a66&quot;&gt;0&lt;/span&gt;&lt;span style=&quot;color: #abb2bf&quot;&gt;;&lt;/span&gt;&lt;/div&gt;&lt;div style=&quot;color: rgb(171 , 178 , 191)&quot;&gt;&lt;span style=&quot;color: #abb2bf&quot;&gt;&amp;nbsp; &amp;nbsp; } &lt;/span&gt;&lt;span style=&quot;color: #c678dd&quot;&gt;else&lt;/span&gt;&lt;span style=&quot;color: #abb2bf&quot;&gt; {&lt;/span&gt;&lt;/div&gt;&lt;div style=&quot;color: rgb(171 , 178 , 191)&quot;&gt;&lt;span style=&quot;color: rgb(224 , 108 , 117)&quot;&gt;&amp;nbsp; &amp;nbsp; &amp;nbsp; &amp;nbsp; ret&lt;/span&gt; &lt;span style=&quot;color: rgb(198 , 120 , 221)&quot;&gt;=&lt;/span&gt; &lt;span style=&quot;color: rgb(97 , 175 , 239)&quot;&gt;ip_vs_new_dest&lt;/span&gt;(&lt;span style=&quot;color: rgb(224 , 108 , 117) ; font-style: italic&quot;&gt;svc&lt;/span&gt;, &lt;span style=&quot;color: rgb(224 , 108 , 117) ; font-style: italic&quot;&gt;udest&lt;/span&gt;, &lt;span style=&quot;color: rgb(198 , 120 , 221)&quot;&gt;&amp;amp;&lt;/span&gt;&lt;span style=&quot;color: rgb(224 , 108 , 117)&quot;&gt;dest&lt;/span&gt;);&lt;br&gt;&lt;/div&gt;&lt;div style=&quot;color: rgb(171 , 178 , 191)&quot;&gt;&lt;span style=&quot;color: #abb2bf&quot;&gt;&amp;nbsp; &amp;nbsp; }&lt;/span&gt;&lt;/div&gt;&lt;div style=&quot;color: rgb(171 , 178 , 191)&quot;&gt;&lt;br&gt;&lt;/div&gt;&lt;div style=&quot;color: rgb(171 , 178 , 191)&quot;&gt;&lt;span style=&quot;color: #abb2bf&quot;&gt;&lt;/span&gt;&lt;span style=&quot;color: #c678dd&quot;&gt;&amp;nbsp; &amp;nbsp; return&lt;/span&gt;&lt;span style=&quot;color: #abb2bf&quot;&gt; &lt;/span&gt;&lt;span style=&quot;color: #e06c75&quot;&gt;ret&lt;/span&gt;&lt;span style=&quot;color: #abb2bf&quot;&gt;;&lt;/span&gt;&lt;/div&gt;&lt;div style=&quot;color: rgb(171 , 178 , 191)&quot;&gt;&lt;span style=&quot;color: #abb2bf&quot;&gt;}&lt;/span&gt;&lt;/div&gt;&lt;/div&gt;" style="text;whiteSpace=wrap;html=1;" parent="1" vertex="1">
                    <mxGeometry x="120" y="80" width="610" height="460" as="geometry"/>
                </mxCell>
                <mxCell id="6" value="__ip_vs_update_dest" style="edgeStyle=orthogonalEdgeStyle;rounded=0;orthogonalLoop=1;jettySize=auto;html=1;exitX=1;exitY=0.5;exitDx=0;exitDy=0;" edge="1" parent="1" source="3" target="5">
                    <mxGeometry relative="1" as="geometry"/>
                </mxCell>
                <mxCell id="3" value="&lt;div style=&quot;color: rgb(171 , 178 , 191) ; background-color: rgb(40 , 44 , 52) ; font-family: &amp;#34;monaco&amp;#34; , &amp;#34;menlo&amp;#34; , &amp;#34;monaco&amp;#34; , &amp;#34;courier new&amp;#34; , monospace ; font-weight: normal ; font-size: 13px ; line-height: 20px&quot;&gt;&lt;div&gt;&lt;span style=&quot;color: #c678dd&quot;&gt;static&lt;/span&gt;&lt;span style=&quot;color: #abb2bf&quot;&gt; &lt;/span&gt;&lt;span style=&quot;color: #c678dd&quot;&gt;int&lt;/span&gt;&lt;/div&gt;&lt;div&gt;&lt;span style=&quot;color: #61afef&quot;&gt;ip_vs_new_dest&lt;/span&gt;&lt;span style=&quot;color: #abb2bf&quot;&gt;(&lt;/span&gt;&lt;span style=&quot;color: #c678dd&quot;&gt;struct&lt;/span&gt;&lt;span style=&quot;color: #e06c75&quot;&gt; &lt;/span&gt;&lt;span style=&quot;color: #e5c07b&quot;&gt;ip_vs_service&lt;/span&gt;&lt;span style=&quot;color: #e06c75&quot;&gt; &lt;/span&gt;&lt;span style=&quot;color: #c678dd&quot;&gt;*&lt;/span&gt;&lt;span style=&quot;color: #e06c75 ; font-style: italic&quot;&gt;svc&lt;/span&gt;&lt;span style=&quot;color: #abb2bf&quot;&gt;,&lt;/span&gt;&lt;span style=&quot;color: #e06c75&quot;&gt; &lt;/span&gt;&lt;span style=&quot;color: #c678dd&quot;&gt;struct&lt;/span&gt;&lt;span style=&quot;color: #e06c75&quot;&gt; &lt;/span&gt;&lt;span style=&quot;color: #e5c07b&quot;&gt;ip_vs_dest_user_kern&lt;/span&gt;&lt;span style=&quot;color: #e06c75&quot;&gt; &lt;/span&gt;&lt;span style=&quot;color: #c678dd&quot;&gt;*&lt;/span&gt;&lt;span style=&quot;color: #e06c75 ; font-style: italic&quot;&gt;udest&lt;/span&gt;&lt;span style=&quot;color: #abb2bf&quot;&gt;,&lt;/span&gt;&lt;/div&gt;&lt;div&gt;&lt;span style=&quot;color: #e06c75&quot;&gt;&lt;/span&gt;&lt;span style=&quot;color: #c678dd&quot;&gt;&amp;nbsp; &amp;nbsp; &amp;nbsp; &amp;nbsp; &amp;nbsp; &amp;nbsp; &amp;nbsp; &amp;nbsp; struct&lt;/span&gt;&lt;span style=&quot;color: #e06c75&quot;&gt; &lt;/span&gt;&lt;span style=&quot;color: #e5c07b&quot;&gt;ip_vs_dest&lt;/span&gt;&lt;span style=&quot;color: #e06c75&quot;&gt; &lt;/span&gt;&lt;span style=&quot;color: #c678dd&quot;&gt;**&lt;/span&gt;&lt;span style=&quot;color: #e06c75 ; font-style: italic&quot;&gt;dest_p&lt;/span&gt;&lt;span style=&quot;color: #abb2bf&quot;&gt;)&lt;/span&gt;&lt;/div&gt;&lt;div&gt;&lt;span style=&quot;color: #abb2bf&quot;&gt;{&lt;/span&gt;&lt;/div&gt;&lt;div&gt;&lt;span style=&quot;color: #abb2bf&quot;&gt;&lt;/span&gt;&lt;span style=&quot;color: #c678dd&quot;&gt;&amp;nbsp; &amp;nbsp; struct&lt;/span&gt;&lt;span style=&quot;color: #abb2bf&quot;&gt; &lt;/span&gt;&lt;span style=&quot;color: #e5c07b&quot;&gt;ip_vs_dest&lt;/span&gt;&lt;span style=&quot;color: #abb2bf&quot;&gt; &lt;/span&gt;&lt;span style=&quot;color: #c678dd&quot;&gt;*&lt;/span&gt;&lt;span style=&quot;color: #e06c75&quot;&gt;dest&lt;/span&gt;&lt;span style=&quot;color: #abb2bf&quot;&gt;;&lt;/span&gt;&lt;/div&gt;&lt;div&gt;&lt;span style=&quot;color: #abb2bf&quot;&gt;&lt;/span&gt;&lt;span style=&quot;color: #c678dd&quot;&gt;&amp;nbsp; &amp;nbsp; unsigned&lt;/span&gt;&lt;span style=&quot;color: #abb2bf&quot;&gt; &lt;/span&gt;&lt;span style=&quot;color: #c678dd&quot;&gt;int&lt;/span&gt;&lt;span style=&quot;color: #abb2bf&quot;&gt; &lt;/span&gt;&lt;span style=&quot;color: #e06c75&quot;&gt;atype&lt;/span&gt;&lt;span style=&quot;color: #abb2bf&quot;&gt;;&lt;/span&gt;&lt;/div&gt;&lt;div&gt;&lt;br&gt;&lt;/div&gt;&lt;div&gt;&lt;span style=&quot;color: rgb(224 , 108 , 117)&quot;&gt;&amp;nbsp; &amp;nbsp; atype&lt;/span&gt; &lt;span style=&quot;color: rgb(198 , 120 , 221)&quot;&gt;=&lt;/span&gt; &lt;span style=&quot;color: rgb(97 , 175 , 239)&quot;&gt;inet_addr_type&lt;/span&gt;(&lt;span style=&quot;color: rgb(224 , 108 , 117) ; font-style: italic&quot;&gt;svc&lt;/span&gt;-&amp;gt;&lt;span style=&quot;color: rgb(224 , 108 , 117)&quot;&gt;net&lt;/span&gt;, &lt;span style=&quot;color: rgb(224 , 108 , 117) ; font-style: italic&quot;&gt;udest&lt;/span&gt;-&amp;gt;&lt;span style=&quot;color: rgb(224 , 108 , 117)&quot;&gt;addr&lt;/span&gt;.&lt;span style=&quot;color: rgb(224 , 108 , 117)&quot;&gt;ip&lt;/span&gt;);&lt;br&gt;&lt;/div&gt;&lt;div&gt;&lt;span style=&quot;color: #abb2bf&quot;&gt;&lt;/span&gt;&lt;span style=&quot;color: #c678dd&quot;&gt;&amp;nbsp; &amp;nbsp; if&lt;/span&gt;&lt;span style=&quot;color: #abb2bf&quot;&gt; (&lt;/span&gt;&lt;span style=&quot;color: #e06c75&quot;&gt;atype&lt;/span&gt;&lt;span style=&quot;color: #abb2bf&quot;&gt; &lt;/span&gt;&lt;span style=&quot;color: #c678dd&quot;&gt;!=&lt;/span&gt;&lt;span style=&quot;color: #abb2bf&quot;&gt; &lt;/span&gt;&lt;span style=&quot;color: #56b6c2&quot;&gt;RTN_LOCAL&lt;/span&gt;&lt;span style=&quot;color: #abb2bf&quot;&gt; &lt;/span&gt;&lt;span style=&quot;color: #56b6c2&quot;&gt;&amp;amp;&amp;amp;&lt;/span&gt;&lt;span style=&quot;color: #abb2bf&quot;&gt; &lt;/span&gt;&lt;span style=&quot;color: #e06c75&quot;&gt;atype&lt;/span&gt;&lt;span style=&quot;color: #abb2bf&quot;&gt; &lt;/span&gt;&lt;span style=&quot;color: #c678dd&quot;&gt;!=&lt;/span&gt;&lt;span style=&quot;color: #abb2bf&quot;&gt; &lt;/span&gt;&lt;span style=&quot;color: #56b6c2&quot;&gt;RTN_UNICAST&lt;/span&gt;&lt;span style=&quot;color: #abb2bf&quot;&gt;)&lt;/span&gt;&lt;/div&gt;&lt;div&gt;&lt;span style=&quot;color: #abb2bf&quot;&gt;&lt;/span&gt;&lt;span style=&quot;color: #c678dd&quot;&gt;&amp;nbsp; &amp;nbsp; &amp;nbsp; &amp;nbsp; return&lt;/span&gt;&lt;span style=&quot;color: #abb2bf&quot;&gt; &lt;/span&gt;&lt;span style=&quot;color: #c678dd&quot;&gt;-&lt;/span&gt;&lt;span style=&quot;color: #61afef&quot;&gt;EINVAL&lt;/span&gt;&lt;span style=&quot;color: #abb2bf&quot;&gt;;&lt;/span&gt;&lt;/div&gt;&lt;div&gt;&lt;br&gt;&lt;/div&gt;&lt;div&gt;&lt;span style=&quot;color: #abb2bf&quot;&gt;&lt;/span&gt;&lt;span style=&quot;color: #e06c75&quot;&gt;&amp;nbsp; &amp;nbsp; dest&lt;/span&gt;&lt;span style=&quot;color: #abb2bf&quot;&gt; &lt;/span&gt;&lt;span style=&quot;color: #c678dd&quot;&gt;=&lt;/span&gt;&lt;span style=&quot;color: #abb2bf&quot;&gt; &lt;/span&gt;&lt;span style=&quot;color: #61afef&quot;&gt;kzalloc&lt;/span&gt;&lt;span style=&quot;color: #abb2bf&quot;&gt;(&lt;/span&gt;&lt;span style=&quot;color: #c678dd&quot;&gt;sizeof&lt;/span&gt;&lt;span style=&quot;color: #abb2bf&quot;&gt;(&lt;/span&gt;&lt;span style=&quot;color: #c678dd&quot;&gt;struct&lt;/span&gt;&lt;span style=&quot;color: #abb2bf&quot;&gt; &lt;/span&gt;&lt;span style=&quot;color: #e5c07b&quot;&gt;ip_vs_dest&lt;/span&gt;&lt;span style=&quot;color: #abb2bf&quot;&gt;), &lt;/span&gt;&lt;span style=&quot;color: #61afef&quot;&gt;GFP_KERNEL&lt;/span&gt;&lt;span style=&quot;color: #abb2bf&quot;&gt;);&lt;/span&gt;&lt;/div&gt;&lt;div&gt;&lt;span style=&quot;color: #abb2bf&quot;&gt;&lt;/span&gt;&lt;span style=&quot;color: #c678dd&quot;&gt;&amp;nbsp; &amp;nbsp; if&lt;/span&gt;&lt;span style=&quot;color: #abb2bf&quot;&gt; (&lt;/span&gt;&lt;span style=&quot;color: #e06c75&quot;&gt;dest&lt;/span&gt;&lt;span style=&quot;color: #abb2bf&quot;&gt; &lt;/span&gt;&lt;span style=&quot;color: #c678dd&quot;&gt;==&lt;/span&gt;&lt;span style=&quot;color: #abb2bf&quot;&gt; &lt;/span&gt;&lt;span style=&quot;color: #61afef&quot;&gt;NULL&lt;/span&gt;&lt;span style=&quot;color: #abb2bf&quot;&gt;)&lt;/span&gt;&lt;/div&gt;&lt;div&gt;&lt;span style=&quot;color: #abb2bf&quot;&gt;&lt;/span&gt;&lt;span style=&quot;color: #c678dd&quot;&gt;&amp;nbsp; &amp;nbsp; &amp;nbsp; &amp;nbsp; return&lt;/span&gt;&lt;span style=&quot;color: #abb2bf&quot;&gt; &lt;/span&gt;&lt;span style=&quot;color: #c678dd&quot;&gt;-&lt;/span&gt;&lt;span style=&quot;color: #61afef&quot;&gt;ENOMEM&lt;/span&gt;&lt;span style=&quot;color: #abb2bf&quot;&gt;;&lt;/span&gt;&lt;/div&gt;&lt;br&gt;&lt;div&gt;&lt;span style=&quot;color: #abb2bf&quot;&gt;&lt;/span&gt;&lt;span style=&quot;color: #e06c75&quot;&gt;&amp;nbsp; &amp;nbsp; dest&lt;/span&gt;&lt;span style=&quot;color: #abb2bf&quot;&gt;-&amp;gt;&lt;/span&gt;&lt;span style=&quot;color: #e06c75&quot;&gt;stats&lt;/span&gt;&lt;span style=&quot;color: #abb2bf&quot;&gt;.&lt;/span&gt;&lt;span style=&quot;color: #e06c75&quot;&gt;cpustats&lt;/span&gt;&lt;span style=&quot;color: #abb2bf&quot;&gt; &lt;/span&gt;&lt;span style=&quot;color: #c678dd&quot;&gt;=&lt;/span&gt;&lt;span style=&quot;color: #abb2bf&quot;&gt; &lt;/span&gt;&lt;span style=&quot;color: #61afef&quot;&gt;alloc_percpu&lt;/span&gt;&lt;span style=&quot;color: #abb2bf&quot;&gt;(&lt;/span&gt;&lt;span style=&quot;color: #c678dd&quot;&gt;struct&lt;/span&gt;&lt;span style=&quot;color: #abb2bf&quot;&gt; ip_vs_cpu_stats);&lt;/span&gt;&lt;/div&gt;&lt;div&gt;&lt;span style=&quot;color: #abb2bf&quot;&gt;&lt;/span&gt;&lt;span style=&quot;color: #c678dd&quot;&gt;&amp;nbsp; &amp;nbsp; if&lt;/span&gt;&lt;span style=&quot;color: #abb2bf&quot;&gt; (&lt;/span&gt;&lt;span style=&quot;color: #56b6c2&quot;&gt;!&lt;/span&gt;&lt;span style=&quot;color: #e06c75&quot;&gt;dest&lt;/span&gt;&lt;span style=&quot;color: #abb2bf&quot;&gt;-&amp;gt;&lt;/span&gt;&lt;span style=&quot;color: #e06c75&quot;&gt;stats&lt;/span&gt;&lt;span style=&quot;color: #abb2bf&quot;&gt;.&lt;/span&gt;&lt;span style=&quot;color: #e06c75&quot;&gt;cpustats&lt;/span&gt;&lt;span style=&quot;color: #abb2bf&quot;&gt;)&lt;/span&gt;&lt;/div&gt;&lt;div&gt;&lt;span style=&quot;color: #abb2bf&quot;&gt;&lt;/span&gt;&lt;span style=&quot;color: #c678dd&quot;&gt;&amp;nbsp; &amp;nbsp; &amp;nbsp; &amp;nbsp; goto&lt;/span&gt;&lt;span style=&quot;color: #abb2bf&quot;&gt; err_alloc;&lt;/span&gt;&lt;/div&gt;&lt;br&gt;&lt;div&gt;&lt;span style=&quot;color: #abb2bf&quot;&gt;&lt;/span&gt;&lt;span style=&quot;color: #e06c75&quot;&gt;&amp;nbsp; &amp;nbsp; dest&lt;/span&gt;&lt;span style=&quot;color: #abb2bf&quot;&gt;-&amp;gt;&lt;/span&gt;&lt;span style=&quot;color: #e06c75&quot;&gt;af&lt;/span&gt;&lt;span style=&quot;color: #abb2bf&quot;&gt; &lt;/span&gt;&lt;span style=&quot;color: #c678dd&quot;&gt;=&lt;/span&gt;&lt;span style=&quot;color: #abb2bf&quot;&gt; &lt;/span&gt;&lt;span style=&quot;color: #e06c75 ; font-style: italic&quot;&gt;svc&lt;/span&gt;&lt;span style=&quot;color: #abb2bf&quot;&gt;-&amp;gt;&lt;/span&gt;&lt;span style=&quot;color: #e06c75&quot;&gt;af&lt;/span&gt;&lt;span style=&quot;color: #abb2bf&quot;&gt;;&lt;/span&gt;&lt;/div&gt;&lt;div&gt;&lt;span style=&quot;color: #abb2bf&quot;&gt;&lt;/span&gt;&lt;span style=&quot;color: #e06c75&quot;&gt;&amp;nbsp; &amp;nbsp; dest&lt;/span&gt;&lt;span style=&quot;color: #abb2bf&quot;&gt;-&amp;gt;&lt;/span&gt;&lt;span style=&quot;color: #e06c75&quot;&gt;protocol&lt;/span&gt;&lt;span style=&quot;color: #abb2bf&quot;&gt; &lt;/span&gt;&lt;span style=&quot;color: #c678dd&quot;&gt;=&lt;/span&gt;&lt;span style=&quot;color: #abb2bf&quot;&gt; &lt;/span&gt;&lt;span style=&quot;color: #e06c75 ; font-style: italic&quot;&gt;svc&lt;/span&gt;&lt;span style=&quot;color: #abb2bf&quot;&gt;-&amp;gt;&lt;/span&gt;&lt;span style=&quot;color: #e06c75&quot;&gt;protocol&lt;/span&gt;&lt;span style=&quot;color: #abb2bf&quot;&gt;;&lt;/span&gt;&lt;/div&gt;&lt;div&gt;&lt;span style=&quot;color: #abb2bf&quot;&gt;&lt;/span&gt;&lt;span style=&quot;color: #e06c75&quot;&gt;&amp;nbsp; &amp;nbsp; dest&lt;/span&gt;&lt;span style=&quot;color: #abb2bf&quot;&gt;-&amp;gt;&lt;/span&gt;&lt;span style=&quot;color: #e06c75&quot;&gt;vaddr&lt;/span&gt;&lt;span style=&quot;color: #abb2bf&quot;&gt; &lt;/span&gt;&lt;span style=&quot;color: #c678dd&quot;&gt;=&lt;/span&gt;&lt;span style=&quot;color: #abb2bf&quot;&gt; &lt;/span&gt;&lt;span style=&quot;color: #e06c75 ; font-style: italic&quot;&gt;svc&lt;/span&gt;&lt;span style=&quot;color: #abb2bf&quot;&gt;-&amp;gt;&lt;/span&gt;&lt;span style=&quot;color: #e06c75&quot;&gt;addr&lt;/span&gt;&lt;span style=&quot;color: #abb2bf&quot;&gt;;&lt;/span&gt;&lt;/div&gt;&lt;div&gt;&lt;span style=&quot;color: #abb2bf&quot;&gt;&lt;/span&gt;&lt;span style=&quot;color: #e06c75&quot;&gt;&amp;nbsp; &amp;nbsp; dest&lt;/span&gt;&lt;span style=&quot;color: #abb2bf&quot;&gt;-&amp;gt;&lt;/span&gt;&lt;span style=&quot;color: #e06c75&quot;&gt;vport&lt;/span&gt;&lt;span style=&quot;color: #abb2bf&quot;&gt; &lt;/span&gt;&lt;span style=&quot;color: #c678dd&quot;&gt;=&lt;/span&gt;&lt;span style=&quot;color: #abb2bf&quot;&gt; &lt;/span&gt;&lt;span style=&quot;color: #e06c75 ; font-style: italic&quot;&gt;svc&lt;/span&gt;&lt;span style=&quot;color: #abb2bf&quot;&gt;-&amp;gt;&lt;/span&gt;&lt;span style=&quot;color: #e06c75&quot;&gt;port&lt;/span&gt;&lt;span style=&quot;color: #abb2bf&quot;&gt;;&lt;/span&gt;&lt;/div&gt;&lt;div&gt;&lt;span style=&quot;color: #abb2bf&quot;&gt;&lt;/span&gt;&lt;span style=&quot;color: #e06c75&quot;&gt;&amp;nbsp; &amp;nbsp; dest&lt;/span&gt;&lt;span style=&quot;color: #abb2bf&quot;&gt;-&amp;gt;&lt;/span&gt;&lt;span style=&quot;color: #e06c75&quot;&gt;vfwmark&lt;/span&gt;&lt;span style=&quot;color: #abb2bf&quot;&gt; &lt;/span&gt;&lt;span style=&quot;color: #c678dd&quot;&gt;=&lt;/span&gt;&lt;span style=&quot;color: #abb2bf&quot;&gt; &lt;/span&gt;&lt;span style=&quot;color: #e06c75 ; font-style: italic&quot;&gt;svc&lt;/span&gt;&lt;span style=&quot;color: #abb2bf&quot;&gt;-&amp;gt;&lt;/span&gt;&lt;span style=&quot;color: #e06c75&quot;&gt;fwmark&lt;/span&gt;&lt;span style=&quot;color: #abb2bf&quot;&gt;;&lt;/span&gt;&lt;/div&gt;&lt;div&gt;&lt;span style=&quot;color: #abb2bf&quot;&gt;&lt;/span&gt;&lt;span style=&quot;color: #61afef&quot;&gt;&amp;nbsp; &amp;nbsp; ip_vs_addr_copy&lt;/span&gt;&lt;span style=&quot;color: #abb2bf&quot;&gt;(&lt;/span&gt;&lt;span style=&quot;color: #e06c75 ; font-style: italic&quot;&gt;svc&lt;/span&gt;&lt;span style=&quot;color: #abb2bf&quot;&gt;-&amp;gt;&lt;/span&gt;&lt;span style=&quot;color: #e06c75&quot;&gt;af&lt;/span&gt;&lt;span style=&quot;color: #abb2bf&quot;&gt;, &lt;/span&gt;&lt;span style=&quot;color: #c678dd&quot;&gt;&amp;amp;&lt;/span&gt;&lt;span style=&quot;color: #e06c75&quot;&gt;dest&lt;/span&gt;&lt;span style=&quot;color: #abb2bf&quot;&gt;-&amp;gt;&lt;/span&gt;&lt;span style=&quot;color: #e06c75&quot;&gt;addr&lt;/span&gt;&lt;span style=&quot;color: #abb2bf&quot;&gt;, &lt;/span&gt;&lt;span style=&quot;color: #c678dd&quot;&gt;&amp;amp;&lt;/span&gt;&lt;span style=&quot;color: #e06c75 ; font-style: italic&quot;&gt;udest&lt;/span&gt;&lt;span style=&quot;color: #abb2bf&quot;&gt;-&amp;gt;&lt;/span&gt;&lt;span style=&quot;color: #e06c75&quot;&gt;addr&lt;/span&gt;&lt;span style=&quot;color: #abb2bf&quot;&gt;);&lt;/span&gt;&lt;/div&gt;&lt;div&gt;&lt;span style=&quot;color: #abb2bf&quot;&gt;&lt;/span&gt;&lt;span style=&quot;color: #e06c75&quot;&gt;&amp;nbsp; &amp;nbsp; dest&lt;/span&gt;&lt;span style=&quot;color: #abb2bf&quot;&gt;-&amp;gt;&lt;/span&gt;&lt;span style=&quot;color: #e06c75&quot;&gt;port&lt;/span&gt;&lt;span style=&quot;color: #abb2bf&quot;&gt; &lt;/span&gt;&lt;span style=&quot;color: #c678dd&quot;&gt;=&lt;/span&gt;&lt;span style=&quot;color: #abb2bf&quot;&gt; &lt;/span&gt;&lt;span style=&quot;color: #e06c75 ; font-style: italic&quot;&gt;udest&lt;/span&gt;&lt;span style=&quot;color: #abb2bf&quot;&gt;-&amp;gt;&lt;/span&gt;&lt;span style=&quot;color: #e06c75&quot;&gt;port&lt;/span&gt;&lt;span style=&quot;color: #abb2bf&quot;&gt;;&lt;/span&gt;&lt;/div&gt;&lt;br&gt;&lt;div&gt;&lt;span style=&quot;color: #abb2bf&quot;&gt;&lt;/span&gt;&lt;span style=&quot;color: #61afef&quot;&gt;&amp;nbsp; &amp;nbsp; atomic_set&lt;/span&gt;&lt;span style=&quot;color: #abb2bf&quot;&gt;(&lt;/span&gt;&lt;span style=&quot;color: #c678dd&quot;&gt;&amp;amp;&lt;/span&gt;&lt;span style=&quot;color: #e06c75&quot;&gt;dest&lt;/span&gt;&lt;span style=&quot;color: #abb2bf&quot;&gt;-&amp;gt;&lt;/span&gt;&lt;span style=&quot;color: #e06c75&quot;&gt;activeconns&lt;/span&gt;&lt;span style=&quot;color: #abb2bf&quot;&gt;, &lt;/span&gt;&lt;span style=&quot;color: #d19a66&quot;&gt;0&lt;/span&gt;&lt;span style=&quot;color: #abb2bf&quot;&gt;);&lt;/span&gt;&lt;/div&gt;&lt;div&gt;&lt;span style=&quot;color: #abb2bf&quot;&gt;&lt;/span&gt;&lt;span style=&quot;color: #61afef&quot;&gt;&amp;nbsp; &amp;nbsp; atomic_set&lt;/span&gt;&lt;span style=&quot;color: #abb2bf&quot;&gt;(&lt;/span&gt;&lt;span style=&quot;color: #c678dd&quot;&gt;&amp;amp;&lt;/span&gt;&lt;span style=&quot;color: #e06c75&quot;&gt;dest&lt;/span&gt;&lt;span style=&quot;color: #abb2bf&quot;&gt;-&amp;gt;&lt;/span&gt;&lt;span style=&quot;color: #e06c75&quot;&gt;inactconns&lt;/span&gt;&lt;span style=&quot;color: #abb2bf&quot;&gt;, &lt;/span&gt;&lt;span style=&quot;color: #d19a66&quot;&gt;0&lt;/span&gt;&lt;span style=&quot;color: #abb2bf&quot;&gt;);&lt;/span&gt;&lt;/div&gt;&lt;div&gt;&lt;span style=&quot;color: #abb2bf&quot;&gt;&lt;/span&gt;&lt;span style=&quot;color: #61afef&quot;&gt;&amp;nbsp; &amp;nbsp; atomic_set&lt;/span&gt;&lt;span style=&quot;color: #abb2bf&quot;&gt;(&lt;/span&gt;&lt;span style=&quot;color: #c678dd&quot;&gt;&amp;amp;&lt;/span&gt;&lt;span style=&quot;color: #e06c75&quot;&gt;dest&lt;/span&gt;&lt;span style=&quot;color: #abb2bf&quot;&gt;-&amp;gt;&lt;/span&gt;&lt;span style=&quot;color: #e06c75&quot;&gt;persistconns&lt;/span&gt;&lt;span style=&quot;color: #abb2bf&quot;&gt;, &lt;/span&gt;&lt;span style=&quot;color: #d19a66&quot;&gt;0&lt;/span&gt;&lt;span style=&quot;color: #abb2bf&quot;&gt;);&lt;/span&gt;&lt;/div&gt;&lt;div&gt;&lt;span style=&quot;color: #abb2bf&quot;&gt;&lt;/span&gt;&lt;span style=&quot;color: #61afef&quot;&gt;&amp;nbsp; &amp;nbsp; atomic_set&lt;/span&gt;&lt;span style=&quot;color: #abb2bf&quot;&gt;(&lt;/span&gt;&lt;span style=&quot;color: #c678dd&quot;&gt;&amp;amp;&lt;/span&gt;&lt;span style=&quot;color: #e06c75&quot;&gt;dest&lt;/span&gt;&lt;span style=&quot;color: #abb2bf&quot;&gt;-&amp;gt;&lt;/span&gt;&lt;span style=&quot;color: #e06c75&quot;&gt;refcnt&lt;/span&gt;&lt;span style=&quot;color: #abb2bf&quot;&gt;, &lt;/span&gt;&lt;span style=&quot;color: #d19a66&quot;&gt;1&lt;/span&gt;&lt;span style=&quot;color: #abb2bf&quot;&gt;);&lt;/span&gt;&lt;/div&gt;&lt;br&gt;&lt;div&gt;&lt;span style=&quot;color: #abb2bf&quot;&gt;&lt;/span&gt;&lt;span style=&quot;color: #61afef&quot;&gt;&amp;nbsp; &amp;nbsp; INIT_HLIST_NODE&lt;/span&gt;&lt;span style=&quot;color: #abb2bf&quot;&gt;(&lt;/span&gt;&lt;span style=&quot;color: #c678dd&quot;&gt;&amp;amp;&lt;/span&gt;&lt;span style=&quot;color: #e06c75&quot;&gt;dest&lt;/span&gt;&lt;span style=&quot;color: #abb2bf&quot;&gt;-&amp;gt;&lt;/span&gt;&lt;span style=&quot;color: #e06c75&quot;&gt;d_list&lt;/span&gt;&lt;span style=&quot;color: #abb2bf&quot;&gt;);&lt;/span&gt;&lt;/div&gt;&lt;div&gt;&lt;span style=&quot;color: #abb2bf&quot;&gt;&lt;/span&gt;&lt;span style=&quot;color: #61afef&quot;&gt;&amp;nbsp; &amp;nbsp; spin_lock_init&lt;/span&gt;&lt;span style=&quot;color: #abb2bf&quot;&gt;(&lt;/span&gt;&lt;span style=&quot;color: #c678dd&quot;&gt;&amp;amp;&lt;/span&gt;&lt;span style=&quot;color: #e06c75&quot;&gt;dest&lt;/span&gt;&lt;span style=&quot;color: #abb2bf&quot;&gt;-&amp;gt;&lt;/span&gt;&lt;span style=&quot;color: #e06c75&quot;&gt;dst_lock&lt;/span&gt;&lt;span style=&quot;color: #abb2bf&quot;&gt;);&lt;/span&gt;&lt;/div&gt;&lt;div&gt;&lt;span style=&quot;color: #abb2bf&quot;&gt;&lt;/span&gt;&lt;span style=&quot;color: #61afef&quot;&gt;&amp;nbsp; &amp;nbsp; spin_lock_init&lt;/span&gt;&lt;span style=&quot;color: #abb2bf&quot;&gt;(&lt;/span&gt;&lt;span style=&quot;color: #c678dd&quot;&gt;&amp;amp;&lt;/span&gt;&lt;span style=&quot;color: #e06c75&quot;&gt;dest&lt;/span&gt;&lt;span style=&quot;color: #abb2bf&quot;&gt;-&amp;gt;&lt;/span&gt;&lt;span style=&quot;color: #e06c75&quot;&gt;stats&lt;/span&gt;&lt;span style=&quot;color: #abb2bf&quot;&gt;.&lt;/span&gt;&lt;span style=&quot;color: #e06c75&quot;&gt;lock&lt;/span&gt;&lt;span style=&quot;color: #abb2bf&quot;&gt;);&lt;/span&gt;&lt;/div&gt;&lt;div&gt;&lt;span style=&quot;color: #abb2bf&quot;&gt;&lt;/span&gt;&lt;span style=&quot;color: #61afef&quot;&gt;&amp;nbsp; &amp;nbsp; __ip_vs_update_dest&lt;/span&gt;&lt;span style=&quot;color: #abb2bf&quot;&gt;(&lt;/span&gt;&lt;span style=&quot;color: #e06c75 ; font-style: italic&quot;&gt;svc&lt;/span&gt;&lt;span style=&quot;color: #abb2bf&quot;&gt;, &lt;/span&gt;&lt;span style=&quot;color: #e06c75&quot;&gt;dest&lt;/span&gt;&lt;span style=&quot;color: #abb2bf&quot;&gt;, &lt;/span&gt;&lt;span style=&quot;color: #e06c75 ; font-style: italic&quot;&gt;udest&lt;/span&gt;&lt;span style=&quot;color: #abb2bf&quot;&gt;, &lt;/span&gt;&lt;span style=&quot;color: #d19a66&quot;&gt;1&lt;/span&gt;&lt;span style=&quot;color: #abb2bf&quot;&gt;);&lt;/span&gt;&lt;/div&gt;&lt;br&gt;&lt;div&gt;&lt;span style=&quot;color: #abb2bf&quot;&gt;&lt;/span&gt;&lt;span style=&quot;color: #c678dd&quot;&gt;&amp;nbsp; &amp;nbsp; *&lt;/span&gt;&lt;span style=&quot;color: #e06c75 ; font-style: italic&quot;&gt;dest_p&lt;/span&gt;&lt;span style=&quot;color: #abb2bf&quot;&gt; &lt;/span&gt;&lt;span style=&quot;color: #c678dd&quot;&gt;=&lt;/span&gt;&lt;span style=&quot;color: #abb2bf&quot;&gt; &lt;/span&gt;&lt;span style=&quot;color: #e06c75&quot;&gt;dest&lt;/span&gt;&lt;span style=&quot;color: #abb2bf&quot;&gt;;&lt;/span&gt;&lt;/div&gt;&lt;div&gt;&lt;br&gt;&lt;/div&gt;&lt;div&gt;&lt;span style=&quot;color: #abb2bf&quot;&gt;&lt;/span&gt;&lt;span style=&quot;color: #c678dd&quot;&gt;&amp;nbsp; &amp;nbsp; return&lt;/span&gt;&lt;span style=&quot;color: #abb2bf&quot;&gt; &lt;/span&gt;&lt;span style=&quot;color: #d19a66&quot;&gt;0&lt;/span&gt;&lt;span style=&quot;color: #abb2bf&quot;&gt;;&lt;/span&gt;&lt;/div&gt;&lt;div&gt;}&lt;br&gt;&lt;/div&gt;&lt;/div&gt;" style="text;whiteSpace=wrap;html=1;" parent="1" vertex="1">
                    <mxGeometry x="40" y="660" width="610" height="830" as="geometry"/>
                </mxCell>
                <mxCell id="5" value="&lt;div style=&quot;color: rgb(171 , 178 , 191) ; background-color: rgb(40 , 44 , 52) ; font-family: &amp;#34;monaco&amp;#34; , &amp;#34;menlo&amp;#34; , &amp;#34;monaco&amp;#34; , &amp;#34;courier new&amp;#34; , monospace ; font-weight: normal ; font-size: 13px ; line-height: 20px&quot;&gt;&lt;div&gt;&lt;span style=&quot;color: #c678dd&quot;&gt;static&lt;/span&gt;&lt;span style=&quot;color: #abb2bf&quot;&gt; &lt;/span&gt;&lt;span style=&quot;color: #c678dd&quot;&gt;void&lt;/span&gt;&lt;/div&gt;&lt;div&gt;&lt;span style=&quot;color: #61afef&quot;&gt;__ip_vs_update_dest&lt;/span&gt;&lt;span style=&quot;color: #abb2bf&quot;&gt;(&lt;/span&gt;&lt;span style=&quot;color: #c678dd&quot;&gt;struct&lt;/span&gt;&lt;span style=&quot;color: #e06c75&quot;&gt; &lt;/span&gt;&lt;span style=&quot;color: #e5c07b&quot;&gt;ip_vs_service&lt;/span&gt;&lt;span style=&quot;color: #e06c75&quot;&gt; &lt;/span&gt;&lt;span style=&quot;color: #c678dd&quot;&gt;*&lt;/span&gt;&lt;span style=&quot;color: #e06c75 ; font-style: italic&quot;&gt;svc&lt;/span&gt;&lt;span style=&quot;color: #abb2bf&quot;&gt;,&lt;/span&gt;&lt;span style=&quot;color: #e06c75&quot;&gt; &lt;/span&gt;&lt;span style=&quot;color: #c678dd&quot;&gt;struct&lt;/span&gt;&lt;span style=&quot;color: #e06c75&quot;&gt; &lt;/span&gt;&lt;span style=&quot;color: #e5c07b&quot;&gt;ip_vs_dest&lt;/span&gt;&lt;span style=&quot;color: #e06c75&quot;&gt; &lt;/span&gt;&lt;span style=&quot;color: #c678dd&quot;&gt;*&lt;/span&gt;&lt;span style=&quot;color: #e06c75 ; font-style: italic&quot;&gt;dest&lt;/span&gt;&lt;span style=&quot;color: #abb2bf&quot;&gt;,&lt;/span&gt;&lt;/div&gt;&lt;div&gt;&lt;span style=&quot;color: #e06c75&quot;&gt;&lt;/span&gt;&lt;span style=&quot;color: #c678dd&quot;&gt;&amp;nbsp; &amp;nbsp; &amp;nbsp; &amp;nbsp; &amp;nbsp; &amp;nbsp; &amp;nbsp; &amp;nbsp; &amp;nbsp; &amp;nbsp; struct&lt;/span&gt;&lt;span style=&quot;color: #e06c75&quot;&gt; &lt;/span&gt;&lt;span style=&quot;color: #e5c07b&quot;&gt;ip_vs_dest_user_kern&lt;/span&gt;&lt;span style=&quot;color: #e06c75&quot;&gt; &lt;/span&gt;&lt;span style=&quot;color: #c678dd&quot;&gt;*&lt;/span&gt;&lt;span style=&quot;color: #e06c75 ; font-style: italic&quot;&gt;udest&lt;/span&gt;&lt;span style=&quot;color: #abb2bf&quot;&gt;,&lt;/span&gt;&lt;span style=&quot;color: #e06c75&quot;&gt; &lt;/span&gt;&lt;span style=&quot;color: #c678dd&quot;&gt;int&lt;/span&gt;&lt;span style=&quot;color: #e06c75&quot;&gt; &lt;/span&gt;&lt;span style=&quot;color: #e06c75 ; font-style: italic&quot;&gt;add&lt;/span&gt;&lt;span style=&quot;color: #abb2bf&quot;&gt;)&lt;/span&gt;&lt;/div&gt;&lt;div&gt;&lt;span style=&quot;color: #abb2bf&quot;&gt;{&lt;/span&gt;&lt;/div&gt;&lt;div&gt;&lt;span style=&quot;color: #abb2bf&quot;&gt;&lt;/span&gt;&lt;span style=&quot;color: #c678dd&quot;&gt;&amp;nbsp; &amp;nbsp; struct&lt;/span&gt;&lt;span style=&quot;color: #abb2bf&quot;&gt; &lt;/span&gt;&lt;span style=&quot;color: #e5c07b&quot;&gt;netns_ipvs&lt;/span&gt;&lt;span style=&quot;color: #abb2bf&quot;&gt; &lt;/span&gt;&lt;span style=&quot;color: #c678dd&quot;&gt;*&lt;/span&gt;&lt;span style=&quot;color: #e06c75&quot;&gt;ipvs&lt;/span&gt;&lt;span style=&quot;color: #abb2bf&quot;&gt; &lt;/span&gt;&lt;span style=&quot;color: #c678dd&quot;&gt;=&lt;/span&gt;&lt;span style=&quot;color: #abb2bf&quot;&gt; &lt;/span&gt;&lt;span style=&quot;color: #61afef&quot;&gt;net_ipvs&lt;/span&gt;&lt;span style=&quot;color: #abb2bf&quot;&gt;(&lt;/span&gt;&lt;span style=&quot;color: #e06c75 ; font-style: italic&quot;&gt;svc&lt;/span&gt;&lt;span style=&quot;color: #abb2bf&quot;&gt;-&amp;gt;&lt;/span&gt;&lt;span style=&quot;color: #e06c75&quot;&gt;net&lt;/span&gt;&lt;span style=&quot;color: #abb2bf&quot;&gt;);&lt;/span&gt;&lt;/div&gt;&lt;div&gt;&lt;span style=&quot;color: #abb2bf&quot;&gt;&lt;/span&gt;&lt;span style=&quot;color: #c678dd&quot;&gt;&amp;nbsp; &amp;nbsp; struct&lt;/span&gt;&lt;span style=&quot;color: #abb2bf&quot;&gt; &lt;/span&gt;&lt;span style=&quot;color: #e5c07b&quot;&gt;ip_vs_scheduler&lt;/span&gt;&lt;span style=&quot;color: #abb2bf&quot;&gt; &lt;/span&gt;&lt;span style=&quot;color: #c678dd&quot;&gt;*&lt;/span&gt;&lt;span style=&quot;color: #e06c75&quot;&gt;sched&lt;/span&gt;&lt;span style=&quot;color: #abb2bf&quot;&gt;;&lt;/span&gt;&lt;/div&gt;&lt;div&gt;&lt;span style=&quot;color: #abb2bf&quot;&gt;&lt;/span&gt;&lt;span style=&quot;color: #c678dd&quot;&gt;&amp;nbsp; &amp;nbsp; int&lt;/span&gt;&lt;span style=&quot;color: #abb2bf&quot;&gt; &lt;/span&gt;&lt;span style=&quot;color: #e06c75&quot;&gt;conn_flags&lt;/span&gt;&lt;span style=&quot;color: #abb2bf&quot;&gt;;&lt;/span&gt;&lt;/div&gt;&lt;br&gt;&lt;div&gt;&lt;span style=&quot;color: #abb2bf&quot;&gt;&lt;/span&gt;&lt;span style=&quot;color: #7f848e ; font-style: italic&quot;&gt;&amp;nbsp; &amp;nbsp; /* set the weight and the flags */&lt;/span&gt;&lt;/div&gt;&lt;div&gt;&lt;span style=&quot;color: #abb2bf&quot;&gt;&lt;/span&gt;&lt;span style=&quot;color: #61afef&quot;&gt;&amp;nbsp; &amp;nbsp; atomic_set&lt;/span&gt;&lt;span style=&quot;color: #abb2bf&quot;&gt;(&lt;/span&gt;&lt;span style=&quot;color: #c678dd&quot;&gt;&amp;amp;&lt;/span&gt;&lt;span style=&quot;color: #e06c75 ; font-style: italic&quot;&gt;dest&lt;/span&gt;&lt;span style=&quot;color: #abb2bf&quot;&gt;-&amp;gt;&lt;/span&gt;&lt;span style=&quot;color: #e06c75&quot;&gt;weight&lt;/span&gt;&lt;span style=&quot;color: #abb2bf&quot;&gt;, &lt;/span&gt;&lt;span style=&quot;color: #e06c75 ; font-style: italic&quot;&gt;udest&lt;/span&gt;&lt;span style=&quot;color: #abb2bf&quot;&gt;-&amp;gt;&lt;/span&gt;&lt;span style=&quot;color: #e06c75&quot;&gt;weight&lt;/span&gt;&lt;span style=&quot;color: #abb2bf&quot;&gt;);&lt;/span&gt;&lt;/div&gt;&lt;div&gt;&lt;span style=&quot;color: #abb2bf&quot;&gt;&lt;/span&gt;&lt;span style=&quot;color: #e06c75&quot;&gt;&amp;nbsp; &amp;nbsp; conn_flags&lt;/span&gt;&lt;span style=&quot;color: #abb2bf&quot;&gt; &lt;/span&gt;&lt;span style=&quot;color: #c678dd&quot;&gt;=&lt;/span&gt;&lt;span style=&quot;color: #abb2bf&quot;&gt; &lt;/span&gt;&lt;span style=&quot;color: #e06c75 ; font-style: italic&quot;&gt;udest&lt;/span&gt;&lt;span style=&quot;color: #abb2bf&quot;&gt;-&amp;gt;&lt;/span&gt;&lt;span style=&quot;color: #e06c75&quot;&gt;conn_flags&lt;/span&gt;&lt;span style=&quot;color: #abb2bf&quot;&gt; &lt;/span&gt;&lt;span style=&quot;color: #c678dd&quot;&gt;&amp;amp;&lt;/span&gt;&lt;span style=&quot;color: #abb2bf&quot;&gt; &lt;/span&gt;&lt;span style=&quot;color: #61afef&quot;&gt;IP_VS_CONN_F_DEST_MASK&lt;/span&gt;&lt;span style=&quot;color: #abb2bf&quot;&gt;;&lt;/span&gt;&lt;/div&gt;&lt;div&gt;&lt;span style=&quot;color: #abb2bf&quot;&gt;&lt;/span&gt;&lt;span style=&quot;color: #e06c75&quot;&gt;&amp;nbsp; &amp;nbsp; conn_flags&lt;/span&gt;&lt;span style=&quot;color: #abb2bf&quot;&gt; &lt;/span&gt;&lt;span style=&quot;color: #c678dd&quot;&gt;|=&lt;/span&gt;&lt;span style=&quot;color: #abb2bf&quot;&gt; &lt;/span&gt;&lt;span style=&quot;color: #61afef&quot;&gt;IP_VS_CONN_F_INACTIVE&lt;/span&gt;&lt;span style=&quot;color: #abb2bf&quot;&gt;;&lt;/span&gt;&lt;/div&gt;&lt;br&gt;&lt;div&gt;&lt;span style=&quot;color: #abb2bf&quot;&gt;&lt;/span&gt;&lt;span style=&quot;color: #7f848e ; font-style: italic&quot;&gt;&amp;nbsp; &amp;nbsp; /* set the IP_VS_CONN_F_NOOUTPUT flag if not masquerading/NAT */&lt;/span&gt;&lt;/div&gt;&lt;div&gt;&lt;span style=&quot;color: #abb2bf&quot;&gt;&lt;/span&gt;&lt;span style=&quot;color: #c678dd&quot;&gt;&amp;nbsp; &amp;nbsp; if&lt;/span&gt;&lt;span style=&quot;color: #abb2bf&quot;&gt; ((&lt;/span&gt;&lt;span style=&quot;color: #e06c75&quot;&gt;conn_flags&lt;/span&gt;&lt;span style=&quot;color: #abb2bf&quot;&gt; &lt;/span&gt;&lt;span style=&quot;color: #c678dd&quot;&gt;&amp;amp;&lt;/span&gt;&lt;span style=&quot;color: #abb2bf&quot;&gt; &lt;/span&gt;&lt;span style=&quot;color: #61afef&quot;&gt;IP_VS_CONN_F_FWD_MASK&lt;/span&gt;&lt;span style=&quot;color: #abb2bf&quot;&gt;) &lt;/span&gt;&lt;span style=&quot;color: #c678dd&quot;&gt;!=&lt;/span&gt;&lt;span style=&quot;color: #abb2bf&quot;&gt; &lt;/span&gt;&lt;span style=&quot;color: #61afef&quot;&gt;IP_VS_CONN_F_MASQ&lt;/span&gt;&lt;span style=&quot;color: #abb2bf&quot;&gt;) {&lt;/span&gt;&lt;/div&gt;&lt;div&gt;&lt;span style=&quot;color: #abb2bf&quot;&gt;&lt;/span&gt;&lt;span style=&quot;color: #e06c75&quot;&gt;&amp;nbsp; &amp;nbsp; &amp;nbsp; &amp;nbsp; conn_flags&lt;/span&gt;&lt;span style=&quot;color: #abb2bf&quot;&gt; &lt;/span&gt;&lt;span style=&quot;color: #c678dd&quot;&gt;|=&lt;/span&gt;&lt;span style=&quot;color: #abb2bf&quot;&gt; &lt;/span&gt;&lt;span style=&quot;color: #61afef&quot;&gt;IP_VS_CONN_F_NOOUTPUT&lt;/span&gt;&lt;span style=&quot;color: #abb2bf&quot;&gt;;&lt;/span&gt;&lt;/div&gt;&lt;div&gt;&lt;span style=&quot;color: #abb2bf&quot;&gt;&amp;nbsp; &amp;nbsp; } &lt;/span&gt;&lt;span style=&quot;color: #c678dd&quot;&gt;else&lt;/span&gt;&lt;span style=&quot;color: #abb2bf&quot;&gt; {&lt;/span&gt;&lt;/div&gt;&lt;div&gt;&lt;span style=&quot;color: #abb2bf&quot;&gt;&lt;/span&gt;&lt;span style=&quot;color: #7f848e ; font-style: italic&quot;&gt;&amp;nbsp; &amp;nbsp; &amp;nbsp; &amp;nbsp; /*&lt;/span&gt;&lt;/div&gt;&lt;div&gt;&lt;span style=&quot;color: #7f848e ; font-style: italic&quot;&gt;&amp;nbsp; &amp;nbsp; &amp;nbsp; &amp;nbsp; &amp;nbsp;*    Put the real service in rs_table if not present.&lt;/span&gt;&lt;/div&gt;&lt;div&gt;&lt;span style=&quot;color: #7f848e ; font-style: italic&quot;&gt;&amp;nbsp; &amp;nbsp; &amp;nbsp; &amp;nbsp; &amp;nbsp;*    For now only for NAT!&lt;/span&gt;&lt;/div&gt;&lt;div&gt;&lt;span style=&quot;color: #7f848e ; font-style: italic&quot;&gt;&amp;nbsp; &amp;nbsp; &amp;nbsp; &amp;nbsp; &amp;nbsp;*/&lt;/span&gt;&lt;/div&gt;&lt;div&gt;&lt;span style=&quot;color: #abb2bf&quot;&gt;&lt;/span&gt;&lt;span style=&quot;color: #61afef&quot;&gt;&amp;nbsp; &amp;nbsp; &amp;nbsp; &amp;nbsp; ip_vs_rs_hash&lt;/span&gt;&lt;span style=&quot;color: #abb2bf&quot;&gt;(&lt;/span&gt;&lt;span style=&quot;color: #e06c75&quot;&gt;ipvs&lt;/span&gt;&lt;span style=&quot;color: #abb2bf&quot;&gt;, &lt;/span&gt;&lt;span style=&quot;color: #e06c75 ; font-style: italic&quot;&gt;dest&lt;/span&gt;&lt;span style=&quot;color: #abb2bf&quot;&gt;);&lt;/span&gt;&lt;/div&gt;&lt;div&gt;&lt;span style=&quot;color: #abb2bf&quot;&gt;&amp;nbsp; &amp;nbsp; }&lt;/span&gt;&lt;/div&gt;&lt;div&gt;&lt;span style=&quot;color: #abb2bf&quot;&gt;&lt;/span&gt;&lt;span style=&quot;color: #61afef&quot;&gt;&amp;nbsp; &amp;nbsp; atomic_set&lt;/span&gt;&lt;span style=&quot;color: #abb2bf&quot;&gt;(&lt;/span&gt;&lt;span style=&quot;color: #c678dd&quot;&gt;&amp;amp;&lt;/span&gt;&lt;span style=&quot;color: #e06c75 ; font-style: italic&quot;&gt;dest&lt;/span&gt;&lt;span style=&quot;color: #abb2bf&quot;&gt;-&amp;gt;&lt;/span&gt;&lt;span style=&quot;color: #e06c75&quot;&gt;conn_flags&lt;/span&gt;&lt;span style=&quot;color: #abb2bf&quot;&gt;, &lt;/span&gt;&lt;span style=&quot;color: #e06c75&quot;&gt;conn_flags&lt;/span&gt;&lt;span style=&quot;color: #abb2bf&quot;&gt;);&lt;/span&gt;&lt;/div&gt;&lt;br&gt;&lt;div&gt;&lt;span style=&quot;color: #abb2bf&quot;&gt;&lt;/span&gt;&lt;span style=&quot;color: #7f848e ; font-style: italic&quot;&gt;&amp;nbsp; &amp;nbsp; /* bind the service */&lt;/span&gt;&lt;/div&gt;&lt;div&gt;&lt;span style=&quot;color: #abb2bf&quot;&gt;&lt;/span&gt;&lt;span style=&quot;color: #c678dd&quot;&gt;&amp;nbsp; &amp;nbsp; if&lt;/span&gt;&lt;span style=&quot;color: #abb2bf&quot;&gt; (&lt;/span&gt;&lt;span style=&quot;color: #56b6c2&quot;&gt;!&lt;/span&gt;&lt;span style=&quot;color: #e06c75 ; font-style: italic&quot;&gt;dest&lt;/span&gt;&lt;span style=&quot;color: #abb2bf&quot;&gt;-&amp;gt;&lt;/span&gt;&lt;span style=&quot;color: #e06c75&quot;&gt;svc&lt;/span&gt;&lt;span style=&quot;color: #abb2bf&quot;&gt;) {&lt;/span&gt;&lt;/div&gt;&lt;div&gt;&lt;span style=&quot;color: #abb2bf&quot;&gt;&lt;/span&gt;&lt;span style=&quot;color: #61afef&quot;&gt;&amp;nbsp; &amp;nbsp; &amp;nbsp; &amp;nbsp; __ip_vs_bind_svc&lt;/span&gt;&lt;span style=&quot;color: #abb2bf&quot;&gt;(&lt;/span&gt;&lt;span style=&quot;color: #e06c75 ; font-style: italic&quot;&gt;dest&lt;/span&gt;&lt;span style=&quot;color: #abb2bf&quot;&gt;, &lt;/span&gt;&lt;span style=&quot;color: #e06c75 ; font-style: italic&quot;&gt;svc&lt;/span&gt;&lt;span style=&quot;color: #abb2bf&quot;&gt;);&lt;/span&gt;&lt;/div&gt;&lt;div&gt;&lt;span style=&quot;color: #abb2bf&quot;&gt;&amp;nbsp; &amp;nbsp; } &lt;/span&gt;&lt;span style=&quot;color: #c678dd&quot;&gt;else&lt;/span&gt;&lt;span style=&quot;color: #abb2bf&quot;&gt; {&lt;/span&gt;&lt;/div&gt;&lt;div&gt;&lt;span style=&quot;color: #abb2bf&quot;&gt;&lt;/span&gt;&lt;span style=&quot;color: #c678dd&quot;&gt;&amp;nbsp; &amp;nbsp; &amp;nbsp; &amp;nbsp; if&lt;/span&gt;&lt;span style=&quot;color: #abb2bf&quot;&gt; (&lt;/span&gt;&lt;span style=&quot;color: #e06c75 ; font-style: italic&quot;&gt;dest&lt;/span&gt;&lt;span style=&quot;color: #abb2bf&quot;&gt;-&amp;gt;&lt;/span&gt;&lt;span style=&quot;color: #e06c75&quot;&gt;svc&lt;/span&gt;&lt;span style=&quot;color: #abb2bf&quot;&gt; &lt;/span&gt;&lt;span style=&quot;color: #c678dd&quot;&gt;!=&lt;/span&gt;&lt;span style=&quot;color: #abb2bf&quot;&gt; &lt;/span&gt;&lt;span style=&quot;color: #e06c75 ; font-style: italic&quot;&gt;svc&lt;/span&gt;&lt;span style=&quot;color: #abb2bf&quot;&gt;) {&lt;/span&gt;&lt;/div&gt;&lt;div&gt;&lt;span style=&quot;color: #abb2bf&quot;&gt;&lt;/span&gt;&lt;span style=&quot;color: #61afef&quot;&gt;&amp;nbsp; &amp;nbsp; &amp;nbsp; &amp;nbsp; &amp;nbsp; &amp;nbsp; __ip_vs_unbind_svc&lt;/span&gt;&lt;span style=&quot;color: #abb2bf&quot;&gt;(&lt;/span&gt;&lt;span style=&quot;color: #e06c75 ; font-style: italic&quot;&gt;dest&lt;/span&gt;&lt;span style=&quot;color: #abb2bf&quot;&gt;);&lt;/span&gt;&lt;/div&gt;&lt;div&gt;&lt;span style=&quot;color: #abb2bf&quot;&gt;&lt;/span&gt;&lt;span style=&quot;color: #61afef&quot;&gt;&amp;nbsp; &amp;nbsp; &amp;nbsp; &amp;nbsp; &amp;nbsp; &amp;nbsp; ip_vs_zero_stats&lt;/span&gt;&lt;span style=&quot;color: #abb2bf&quot;&gt;(&lt;/span&gt;&lt;span style=&quot;color: #c678dd&quot;&gt;&amp;amp;&lt;/span&gt;&lt;span style=&quot;color: #e06c75 ; font-style: italic&quot;&gt;dest&lt;/span&gt;&lt;span style=&quot;color: #abb2bf&quot;&gt;-&amp;gt;&lt;/span&gt;&lt;span style=&quot;color: #e06c75&quot;&gt;stats&lt;/span&gt;&lt;span style=&quot;color: #abb2bf&quot;&gt;);&lt;/span&gt;&lt;/div&gt;&lt;div&gt;&lt;span style=&quot;color: #abb2bf&quot;&gt;&lt;/span&gt;&lt;span style=&quot;color: #61afef&quot;&gt;&amp;nbsp; &amp;nbsp; &amp;nbsp; &amp;nbsp; &amp;nbsp; &amp;nbsp; __ip_vs_bind_svc&lt;/span&gt;&lt;span style=&quot;color: #abb2bf&quot;&gt;(&lt;/span&gt;&lt;span style=&quot;color: #e06c75 ; font-style: italic&quot;&gt;dest&lt;/span&gt;&lt;span style=&quot;color: #abb2bf&quot;&gt;, &lt;/span&gt;&lt;span style=&quot;color: #e06c75 ; font-style: italic&quot;&gt;svc&lt;/span&gt;&lt;span style=&quot;color: #abb2bf&quot;&gt;);&lt;/span&gt;&lt;/div&gt;&lt;div&gt;&lt;span style=&quot;color: #abb2bf&quot;&gt;&amp;nbsp; &amp;nbsp; &amp;nbsp; &amp;nbsp; }&lt;/span&gt;&lt;/div&gt;&lt;div&gt;&lt;span style=&quot;color: #abb2bf&quot;&gt;&amp;nbsp; &amp;nbsp; }&lt;/span&gt;&lt;/div&gt;&lt;br&gt;&lt;div&gt;&lt;span style=&quot;color: #abb2bf&quot;&gt;&lt;/span&gt;&lt;span style=&quot;color: #7f848e ; font-style: italic&quot;&gt;&amp;nbsp; &amp;nbsp; /* set the dest status flags */&lt;/span&gt;&lt;/div&gt;&lt;div&gt;&lt;span style=&quot;color: #abb2bf&quot;&gt;&lt;/span&gt;&lt;span style=&quot;color: #e06c75 ; font-style: italic&quot;&gt;&amp;nbsp; &amp;nbsp; dest&lt;/span&gt;&lt;span style=&quot;color: #abb2bf&quot;&gt;-&amp;gt;&lt;/span&gt;&lt;span style=&quot;color: #e06c75&quot;&gt;flags&lt;/span&gt;&lt;span style=&quot;color: #abb2bf&quot;&gt; &lt;/span&gt;&lt;span style=&quot;color: #c678dd&quot;&gt;|=&lt;/span&gt;&lt;span style=&quot;color: #abb2bf&quot;&gt; &lt;/span&gt;&lt;span style=&quot;color: #61afef&quot;&gt;IP_VS_DEST_F_AVAILABLE&lt;/span&gt;&lt;span style=&quot;color: #abb2bf&quot;&gt;;&lt;/span&gt;&lt;/div&gt;&lt;br&gt;&lt;div&gt;&lt;span style=&quot;color: #abb2bf&quot;&gt;&lt;/span&gt;&lt;span style=&quot;color: #c678dd&quot;&gt;&amp;nbsp; &amp;nbsp; if&lt;/span&gt;&lt;span style=&quot;color: #abb2bf&quot;&gt; (&lt;/span&gt;&lt;span style=&quot;color: #e06c75 ; font-style: italic&quot;&gt;udest&lt;/span&gt;&lt;span style=&quot;color: #abb2bf&quot;&gt;-&amp;gt;&lt;/span&gt;&lt;span style=&quot;color: #e06c75&quot;&gt;u_threshold&lt;/span&gt;&lt;span style=&quot;color: #abb2bf&quot;&gt; &lt;/span&gt;&lt;span style=&quot;color: #c678dd&quot;&gt;==&lt;/span&gt;&lt;span style=&quot;color: #abb2bf&quot;&gt; &lt;/span&gt;&lt;span style=&quot;color: #d19a66&quot;&gt;0&lt;/span&gt;&lt;span style=&quot;color: #abb2bf&quot;&gt; &lt;/span&gt;&lt;span style=&quot;color: #56b6c2&quot;&gt;||&lt;/span&gt;&lt;span style=&quot;color: #abb2bf&quot;&gt; &lt;/span&gt;&lt;span style=&quot;color: #e06c75 ; font-style: italic&quot;&gt;udest&lt;/span&gt;&lt;span style=&quot;color: #abb2bf&quot;&gt;-&amp;gt;&lt;/span&gt;&lt;span style=&quot;color: #e06c75&quot;&gt;u_threshold&lt;/span&gt;&lt;span style=&quot;color: #abb2bf&quot;&gt; &lt;/span&gt;&lt;span style=&quot;color: #c678dd&quot;&gt;&amp;gt;&lt;/span&gt;&lt;span style=&quot;color: #abb2bf&quot;&gt; &lt;/span&gt;&lt;span style=&quot;color: #e06c75 ; font-style: italic&quot;&gt;dest&lt;/span&gt;&lt;span style=&quot;color: #abb2bf&quot;&gt;-&amp;gt;&lt;/span&gt;&lt;span style=&quot;color: #e06c75&quot;&gt;u_threshold&lt;/span&gt;&lt;span style=&quot;color: #abb2bf&quot;&gt;)&lt;/span&gt;&lt;/div&gt;&lt;div&gt;&lt;span style=&quot;color: #abb2bf&quot;&gt;&lt;/span&gt;&lt;span style=&quot;color: #e06c75 ; font-style: italic&quot;&gt;&amp;nbsp; &amp;nbsp; &amp;nbsp; &amp;nbsp; dest&lt;/span&gt;&lt;span style=&quot;color: #abb2bf&quot;&gt;-&amp;gt;&lt;/span&gt;&lt;span style=&quot;color: #e06c75&quot;&gt;flags&lt;/span&gt;&lt;span style=&quot;color: #abb2bf&quot;&gt; &lt;/span&gt;&lt;span style=&quot;color: #c678dd&quot;&gt;&amp;amp;=&lt;/span&gt;&lt;span style=&quot;color: #abb2bf&quot;&gt; &lt;/span&gt;&lt;span style=&quot;color: #c678dd&quot;&gt;~&lt;/span&gt;&lt;span style=&quot;color: #61afef&quot;&gt;IP_VS_DEST_F_OVERLOAD&lt;/span&gt;&lt;span style=&quot;color: #abb2bf&quot;&gt;;&lt;/span&gt;&lt;/div&gt;&lt;div&gt;&lt;span style=&quot;color: #abb2bf&quot;&gt;&lt;/span&gt;&lt;span style=&quot;color: #e06c75 ; font-style: italic&quot;&gt;&amp;nbsp; &amp;nbsp; &amp;nbsp; &amp;nbsp; dest&lt;/span&gt;&lt;span style=&quot;color: #abb2bf&quot;&gt;-&amp;gt;&lt;/span&gt;&lt;span style=&quot;color: #e06c75&quot;&gt;u_threshold&lt;/span&gt;&lt;span style=&quot;color: #abb2bf&quot;&gt; &lt;/span&gt;&lt;span style=&quot;color: #c678dd&quot;&gt;=&lt;/span&gt;&lt;span style=&quot;color: #abb2bf&quot;&gt; &lt;/span&gt;&lt;span style=&quot;color: #e06c75 ; font-style: italic&quot;&gt;udest&lt;/span&gt;&lt;span style=&quot;color: #abb2bf&quot;&gt;-&amp;gt;&lt;/span&gt;&lt;span style=&quot;color: #e06c75&quot;&gt;u_threshold&lt;/span&gt;&lt;span style=&quot;color: #abb2bf&quot;&gt;;&lt;/span&gt;&lt;/div&gt;&lt;div&gt;&lt;span style=&quot;color: #abb2bf&quot;&gt;&lt;/span&gt;&lt;span style=&quot;color: #e06c75 ; font-style: italic&quot;&gt;&amp;nbsp; &amp;nbsp; &amp;nbsp; &amp;nbsp; dest&lt;/span&gt;&lt;span style=&quot;color: #abb2bf&quot;&gt;-&amp;gt;&lt;/span&gt;&lt;span style=&quot;color: #e06c75&quot;&gt;l_threshold&lt;/span&gt;&lt;span style=&quot;color: #abb2bf&quot;&gt; &lt;/span&gt;&lt;span style=&quot;color: #c678dd&quot;&gt;=&lt;/span&gt;&lt;span style=&quot;color: #abb2bf&quot;&gt; &lt;/span&gt;&lt;span style=&quot;color: #e06c75 ; font-style: italic&quot;&gt;udest&lt;/span&gt;&lt;span style=&quot;color: #abb2bf&quot;&gt;-&amp;gt;&lt;/span&gt;&lt;span style=&quot;color: #e06c75&quot;&gt;l_threshold&lt;/span&gt;&lt;span style=&quot;color: #abb2bf&quot;&gt;;&lt;/span&gt;&lt;/div&gt;&lt;br&gt;&lt;div&gt;&lt;span style=&quot;color: #abb2bf&quot;&gt;&lt;/span&gt;&lt;span style=&quot;color: #61afef&quot;&gt;&amp;nbsp; &amp;nbsp; &amp;nbsp; &amp;nbsp;spin_lock_bh&lt;/span&gt;&lt;span style=&quot;color: #abb2bf&quot;&gt;(&lt;/span&gt;&lt;span style=&quot;color: #c678dd&quot;&gt;&amp;amp;&lt;/span&gt;&lt;span style=&quot;color: #e06c75 ; font-style: italic&quot;&gt;dest&lt;/span&gt;&lt;span style=&quot;color: #abb2bf&quot;&gt;-&amp;gt;&lt;/span&gt;&lt;span style=&quot;color: #e06c75&quot;&gt;dst_lock&lt;/span&gt;&lt;span style=&quot;color: #abb2bf&quot;&gt;);&lt;/span&gt;&lt;/div&gt;&lt;div&gt;&lt;span style=&quot;color: #abb2bf&quot;&gt;&lt;/span&gt;&lt;span style=&quot;color: #61afef&quot;&gt;&amp;nbsp; &amp;nbsp; &amp;nbsp; &amp;nbsp;__ip_vs_dst_cache_reset&lt;/span&gt;&lt;span style=&quot;color: #abb2bf&quot;&gt;(&lt;/span&gt;&lt;span style=&quot;color: #e06c75 ; font-style: italic&quot;&gt;dest&lt;/span&gt;&lt;span style=&quot;color: #abb2bf&quot;&gt;);&lt;/span&gt;&lt;/div&gt;&lt;div&gt;&lt;span style=&quot;color: #abb2bf&quot;&gt;&lt;/span&gt;&lt;span style=&quot;color: #61afef&quot;&gt;&amp;nbsp; &amp;nbsp; &amp;nbsp; &amp;nbsp;spin_unlock_bh&lt;/span&gt;&lt;span style=&quot;color: #abb2bf&quot;&gt;(&lt;/span&gt;&lt;span style=&quot;color: #c678dd&quot;&gt;&amp;amp;&lt;/span&gt;&lt;span style=&quot;color: #e06c75 ; font-style: italic&quot;&gt;dest&lt;/span&gt;&lt;span style=&quot;color: #abb2bf&quot;&gt;-&amp;gt;&lt;/span&gt;&lt;span style=&quot;color: #e06c75&quot;&gt;dst_lock&lt;/span&gt;&lt;span style=&quot;color: #abb2bf&quot;&gt;);&lt;/span&gt;&lt;/div&gt;&lt;br&gt;&lt;div&gt;&lt;span style=&quot;color: #abb2bf&quot;&gt;&lt;/span&gt;&lt;span style=&quot;color: #c678dd&quot;&gt;&amp;nbsp; &amp;nbsp; if&lt;/span&gt;&lt;span style=&quot;color: #abb2bf&quot;&gt; (&lt;/span&gt;&lt;span style=&quot;color: #e06c75 ; font-style: italic&quot;&gt;add&lt;/span&gt;&lt;span style=&quot;color: #abb2bf&quot;&gt;) {&lt;/span&gt;&lt;/div&gt;&lt;div&gt;&lt;span style=&quot;color: #abb2bf&quot;&gt;&lt;/span&gt;&lt;span style=&quot;color: #61afef&quot;&gt;&amp;nbsp; &amp;nbsp; &amp;nbsp; &amp;nbsp; ip_vs_start_estimator&lt;/span&gt;&lt;span style=&quot;color: #abb2bf&quot;&gt;(&lt;/span&gt;&lt;span style=&quot;color: #e06c75 ; font-style: italic&quot;&gt;svc&lt;/span&gt;&lt;span style=&quot;color: #abb2bf&quot;&gt;-&amp;gt;&lt;/span&gt;&lt;span style=&quot;color: #e06c75&quot;&gt;net&lt;/span&gt;&lt;span style=&quot;color: #abb2bf&quot;&gt;, &lt;/span&gt;&lt;span style=&quot;color: #c678dd&quot;&gt;&amp;amp;&lt;/span&gt;&lt;span style=&quot;color: #e06c75 ; font-style: italic&quot;&gt;dest&lt;/span&gt;&lt;span style=&quot;color: #abb2bf&quot;&gt;-&amp;gt;&lt;/span&gt;&lt;span style=&quot;color: #e06c75&quot;&gt;stats&lt;/span&gt;&lt;span style=&quot;color: #abb2bf&quot;&gt;);&lt;/span&gt;&lt;/div&gt;&lt;div&gt;&lt;span style=&quot;color: #abb2bf&quot;&gt;&lt;/span&gt;&lt;span style=&quot;color: #61afef&quot;&gt;&amp;nbsp; &amp;nbsp; &amp;nbsp; &amp;nbsp; list_add_rcu&lt;/span&gt;&lt;span style=&quot;color: #abb2bf&quot;&gt;(&lt;/span&gt;&lt;span style=&quot;color: #c678dd&quot;&gt;&amp;amp;&lt;/span&gt;&lt;span style=&quot;color: #e06c75 ; font-style: italic&quot;&gt;dest&lt;/span&gt;&lt;span style=&quot;color: #abb2bf&quot;&gt;-&amp;gt;&lt;/span&gt;&lt;span style=&quot;color: #e06c75&quot;&gt;n_list&lt;/span&gt;&lt;span style=&quot;color: #abb2bf&quot;&gt;, &lt;/span&gt;&lt;span style=&quot;color: #c678dd&quot;&gt;&amp;amp;&lt;/span&gt;&lt;span style=&quot;color: #e06c75 ; font-style: italic&quot;&gt;svc&lt;/span&gt;&lt;span style=&quot;color: #abb2bf&quot;&gt;-&amp;gt;&lt;/span&gt;&lt;span style=&quot;color: #e06c75&quot;&gt;destinations&lt;/span&gt;&lt;span style=&quot;color: #abb2bf&quot;&gt;);&lt;/span&gt;&lt;/div&gt;&lt;div&gt;&lt;span style=&quot;color: #abb2bf&quot;&gt;&lt;/span&gt;&lt;span style=&quot;color: #e06c75 ; font-style: italic&quot;&gt;&amp;nbsp; &amp;nbsp; &amp;nbsp; &amp;nbsp; svc&lt;/span&gt;&lt;span style=&quot;color: #abb2bf&quot;&gt;-&amp;gt;&lt;/span&gt;&lt;span style=&quot;color: #e06c75&quot;&gt;num_dests&lt;/span&gt;&lt;span style=&quot;color: #c678dd&quot;&gt;++&lt;/span&gt;&lt;span style=&quot;color: #abb2bf&quot;&gt;;&lt;/span&gt;&lt;/div&gt;&lt;div&gt;&lt;span style=&quot;color: #abb2bf&quot;&gt;&lt;/span&gt;&lt;span style=&quot;color: #e06c75&quot;&gt;&amp;nbsp; &amp;nbsp; &amp;nbsp; &amp;nbsp; sched&lt;/span&gt;&lt;span style=&quot;color: #abb2bf&quot;&gt; &lt;/span&gt;&lt;span style=&quot;color: #c678dd&quot;&gt;=&lt;/span&gt;&lt;span style=&quot;color: #abb2bf&quot;&gt; &lt;/span&gt;&lt;span style=&quot;color: #61afef&quot;&gt;rcu_dereference_protected&lt;/span&gt;&lt;span style=&quot;color: #abb2bf&quot;&gt;(&lt;/span&gt;&lt;span style=&quot;color: #e06c75 ; font-style: italic&quot;&gt;svc&lt;/span&gt;&lt;span style=&quot;color: #abb2bf&quot;&gt;-&amp;gt;&lt;/span&gt;&lt;span style=&quot;color: #e06c75&quot;&gt;scheduler&lt;/span&gt;&lt;span style=&quot;color: #abb2bf&quot;&gt;, &lt;/span&gt;&lt;span style=&quot;color: #d19a66&quot;&gt;1&lt;/span&gt;&lt;span style=&quot;color: #abb2bf&quot;&gt;);&lt;/span&gt;&lt;/div&gt;&lt;div&gt;&lt;span style=&quot;color: #abb2bf&quot;&gt;&lt;/span&gt;&lt;span style=&quot;color: #c678dd&quot;&gt;&amp;nbsp; &amp;nbsp; &amp;nbsp; &amp;nbsp; if&lt;/span&gt;&lt;span style=&quot;color: #abb2bf&quot;&gt; (&lt;/span&gt;&lt;span style=&quot;color: #e06c75&quot;&gt;sched&lt;/span&gt;&lt;span style=&quot;color: #abb2bf&quot;&gt; &lt;/span&gt;&lt;span style=&quot;color: #56b6c2&quot;&gt;&amp;amp;&amp;amp;&lt;/span&gt;&lt;span style=&quot;color: #abb2bf&quot;&gt; &lt;/span&gt;&lt;span style=&quot;color: #e06c75&quot;&gt;sched&lt;/span&gt;&lt;span style=&quot;color: #abb2bf&quot;&gt;-&amp;gt;&lt;/span&gt;&lt;span style=&quot;color: #e06c75&quot;&gt;add_dest&lt;/span&gt;&lt;span style=&quot;color: #abb2bf&quot;&gt;)&lt;/span&gt;&lt;/div&gt;&lt;div&gt;&lt;span style=&quot;color: #abb2bf&quot;&gt;&lt;/span&gt;&lt;span style=&quot;color: #e06c75&quot;&gt;&amp;nbsp; &amp;nbsp; &amp;nbsp; &amp;nbsp; &amp;nbsp; &amp;nbsp; sched&lt;/span&gt;&lt;span style=&quot;color: #abb2bf&quot;&gt;-&amp;gt;&lt;/span&gt;&lt;span style=&quot;color: #e06c75&quot;&gt;add_dest&lt;/span&gt;&lt;span style=&quot;color: #abb2bf&quot;&gt;(&lt;/span&gt;&lt;span style=&quot;color: #e06c75 ; font-style: italic&quot;&gt;svc&lt;/span&gt;&lt;span style=&quot;color: #abb2bf&quot;&gt;, &lt;/span&gt;&lt;span style=&quot;color: #e06c75 ; font-style: italic&quot;&gt;dest&lt;/span&gt;&lt;span style=&quot;color: #abb2bf&quot;&gt;);&lt;/span&gt;&lt;/div&gt;&lt;div&gt;&lt;span style=&quot;color: #abb2bf&quot;&gt;&amp;nbsp; &amp;nbsp; &amp;nbsp; &amp;nbsp; } &lt;/span&gt;&lt;span style=&quot;color: #c678dd&quot;&gt;else&lt;/span&gt;&lt;span style=&quot;color: #abb2bf&quot;&gt; {&lt;/span&gt;&lt;/div&gt;&lt;div&gt;&lt;span style=&quot;color: #abb2bf&quot;&gt;&lt;/span&gt;&lt;span style=&quot;color: #e06c75&quot;&gt;&amp;nbsp; &amp;nbsp; &amp;nbsp; &amp;nbsp; &amp;nbsp; &amp;nbsp; sched&lt;/span&gt;&lt;span style=&quot;color: #abb2bf&quot;&gt; &lt;/span&gt;&lt;span style=&quot;color: #c678dd&quot;&gt;=&lt;/span&gt;&lt;span style=&quot;color: #abb2bf&quot;&gt; &lt;/span&gt;&lt;span style=&quot;color: #61afef&quot;&gt;rcu_dereference_protected&lt;/span&gt;&lt;span style=&quot;color: #abb2bf&quot;&gt;(&lt;/span&gt;&lt;span style=&quot;color: #e06c75 ; font-style: italic&quot;&gt;svc&lt;/span&gt;&lt;span style=&quot;color: #abb2bf&quot;&gt;-&amp;gt;&lt;/span&gt;&lt;span style=&quot;color: #e06c75&quot;&gt;scheduler&lt;/span&gt;&lt;span style=&quot;color: #abb2bf&quot;&gt;, &lt;/span&gt;&lt;span style=&quot;color: #d19a66&quot;&gt;1&lt;/span&gt;&lt;span style=&quot;color: #abb2bf&quot;&gt;);&lt;/span&gt;&lt;/div&gt;&lt;div&gt;&lt;span style=&quot;color: #abb2bf&quot;&gt;&lt;/span&gt;&lt;span style=&quot;color: #c678dd&quot;&gt;&amp;nbsp; &amp;nbsp; &amp;nbsp; &amp;nbsp; &amp;nbsp; &amp;nbsp; if&lt;/span&gt;&lt;span style=&quot;color: #abb2bf&quot;&gt; (&lt;/span&gt;&lt;span style=&quot;color: #e06c75&quot;&gt;sched&lt;/span&gt;&lt;span style=&quot;color: #abb2bf&quot;&gt; &lt;/span&gt;&lt;span style=&quot;color: #56b6c2&quot;&gt;&amp;amp;&amp;amp;&lt;/span&gt;&lt;span style=&quot;color: #abb2bf&quot;&gt; &lt;/span&gt;&lt;span style=&quot;color: #e06c75&quot;&gt;sched&lt;/span&gt;&lt;span style=&quot;color: #abb2bf&quot;&gt;-&amp;gt;&lt;/span&gt;&lt;span style=&quot;color: #e06c75&quot;&gt;upd_dest&lt;/span&gt;&lt;span style=&quot;color: #abb2bf&quot;&gt;)&lt;/span&gt;&lt;/div&gt;&lt;div&gt;&lt;span style=&quot;color: #abb2bf&quot;&gt;&lt;/span&gt;&lt;span style=&quot;color: #e06c75&quot;&gt;&amp;nbsp; &amp;nbsp; &amp;nbsp; &amp;nbsp; &amp;nbsp; &amp;nbsp; &amp;nbsp; &amp;nbsp; sched&lt;/span&gt;&lt;span style=&quot;color: #abb2bf&quot;&gt;-&amp;gt;&lt;/span&gt;&lt;span style=&quot;color: #e06c75&quot;&gt;upd_dest&lt;/span&gt;&lt;span style=&quot;color: #abb2bf&quot;&gt;(&lt;/span&gt;&lt;span style=&quot;color: #e06c75 ; font-style: italic&quot;&gt;svc&lt;/span&gt;&lt;span style=&quot;color: #abb2bf&quot;&gt;, &lt;/span&gt;&lt;span style=&quot;color: #e06c75 ; font-style: italic&quot;&gt;dest&lt;/span&gt;&lt;span style=&quot;color: #abb2bf&quot;&gt;);&lt;/span&gt;&lt;/div&gt;&lt;div&gt;&lt;span style=&quot;color: #abb2bf&quot;&gt;&amp;nbsp; &amp;nbsp; &amp;nbsp; &amp;nbsp; }&lt;/span&gt;&lt;/div&gt;&lt;div&gt;&lt;span style=&quot;color: #abb2bf&quot;&gt;&amp;nbsp; &amp;nbsp; }&lt;/span&gt;&lt;/div&gt;&lt;br&gt;&lt;/div&gt;" style="text;whiteSpace=wrap;html=1;" vertex="1" parent="1">
                    <mxGeometry x="920" y="660" width="590" height="1250" as="geometry"/>
                </mxCell>
            </root>
        </mxGraphModel>
    </diagram>
</mxfile>